{
	"asset":{
		"generator":"Khronos glTF Blender I/O v5.1.20",
		"version":"2.0"
	},
	"extensionsUsed":[
		"KHR_materials_specular",
		"KHR_materials_ior",
		"KHR_texture_transform"
	],
	"extensionsRequired":[
		"KHR_texture_transform"
	],
	"scene":0,
	"scenes":[
		{
			"name":"Scene",
			"nodes":[
				0
			]
		}
	],
	"nodes":[
		{
			"mesh":0,
			"name":"Roof",
			"rotation":[
				0,
				0.7070955038070679,
				0,
				0.7071181535720825
			],
			"translation":[
				-11.139870643615723,
				-1.241439700126648,
				-7.670395851135254
			]
		}
	],
	"materials":[
		{
			"doubleSided":true,
			"extensions":{
				"KHR_materials_specular":{
					"specularColorFactor":[
						2.0,
						2.0,
						2.0
					]
				},
				"KHR_materials_ior":{
					"ior":1.4500000476837158
				}
			},
			"name":"Dry concrete",
			"normalTexture":{
				"extensions":{
					"KHR_texture_transform":{
						"offset":[
							0,
							0.10000002384185791
						],
						"scale":[
							0.8999999761581421,
							0.8999999761581421
						]
					}
				},
				"index":0,
				"scale":0.8500000238418579,
				"texCoord":1
			},
			"pbrMetallicRoughness":{
				"baseColorTexture":{
					"extensions":{
						"KHR_texture_transform":{
							"offset":[
								0,
								0.10000002384185791
							],
							"scale":[
								0.8999999761581421,
								0.8999999761581421
							]
						}
					},
					"index":1,
					"texCoord":1
				},
				"metallicRoughnessTexture":{
					"extensions":{
						"KHR_texture_transform":{
							"offset":[
								0,
								0.10000002384185791
							],
							"scale":[
								0.8999999761581421,
								0.8999999761581421
							]
						}
					},
					"index":2,
					"texCoord":1
				}
			}
		}
	],
	"meshes":[
		{
			"name":"Cube.023",
			"primitives":[
				{
					"attributes":{
						"POSITION":0,
						"NORMAL":1,
						"TEXCOORD_0":2,
						"TEXCOORD_1":3
					},
					"indices":4,
					"material":0
				}
			]
		}
	],
	"textures":[
		{
			"sampler":0,
			"source":0
		},
		{
			"sampler":0,
			"source":1
		},
		{
			"sampler":0,
			"source":2
		}
	],
	"images":[
		{
			"mimeType":"image/jpeg",
			"name":"T_Set_Stairs_Concrete_2_normal",
			"uri":"T_Set_Stairs_Concrete_2_normal.jpg"
		},
		{
			"mimeType":"image/jpeg",
			"name":"T_Set_Stairs_Concrete_2_basecolor",
			"uri":"T_Set_Stairs_Concrete_2_basecolor.jpg"
		},
		{
			"mimeType":"image/jpeg",
			"name":"T_Set_Stairs_Concrete_2_OcclusionRoughnessMetallic",
			"uri":"T_Set_Stairs_Concrete_2_OcclusionRoughnessMetallic.jpg"
		}
	],
	"accessors":[
		{
			"bufferView":0,
			"componentType":5126,
			"count":1072,
			"max":[
				29.000770568847656,
				0.05970275402069092,
				24.991840362548828
			],
			"min":[
				-14.995763778686523,
				0.059610843658447266,
				-1.0009573698043823
			],
			"type":"VEC3"
		},
		{
			"bufferView":1,
			"componentType":5126,
			"count":1072,
			"type":"VEC3"
		},
		{
			"bufferView":2,
			"componentType":5126,
			"count":1072,
			"type":"VEC2"
		},
		{
			"bufferView":3,
			"componentType":5126,
			"count":1072,
			"type":"VEC2"
		},
		{
			"bufferView":4,
			"componentType":5123,
			"count":1608,
			"type":"SCALAR"
		}
	],
	"bufferViews":[
		{
			"buffer":0,
			"byteLength":12864,
			"byteOffset":0,
			"target":34962
		},
		{
			"buffer":0,
			"byteLength":12864,
			"byteOffset":12864,
			"target":34962
		},
		{
			"buffer":0,
			"byteLength":8576,
			"byteOffset":25728,
			"target":34962
		},
		{
			"buffer":0,
			"byteLength":8576,
			"byteOffset":34304,
			"target":34962
		},
		{
			"buffer":0,
			"byteLength":3216,
			"byteOffset":42880,
			"target":34963
		}
	],
	"samplers":[
		{
			"magFilter":9729,
			"minFilter":9987
		}
	],
	"buffers":[
		{
			"byteLength":46096,
			"uri":"Roof.bin"
		}
	]
}
