{
	"asset":{
		"generator":"Khronos glTF Blender I/O v5.1.20",
		"version":"2.0"
	},
	"extensionsUsed":[
		"KHR_materials_specular",
		"KHR_texture_transform"
	],
	"extensionsRequired":[
		"KHR_texture_transform"
	],
	"scene":0,
	"scenes":[
		{
			"name":"Scene",
			"nodes":[
				0,
				1,
				2
			]
		}
	],
	"nodes":[
		{
			"mesh":0,
			"name":"Plane.001",
			"rotation":[
				0,
				0,
				-0.7071068286895752,
				0.7071068286895752
			],
			"translation":[
				-6.148889064788818,
				-2.3685200214385986,
				3.2667949199676514
			]
		},
		{
			"mesh":1,
			"name":"Plane.004",
			"rotation":[
				0,
				0,
				-0.7071068286895752,
				0.7071068286895752
			],
			"translation":[
				6.148866653442383,
				-2.3709402084350586,
				3.267326831817627
			]
		},
		{
			"mesh":2,
			"name":"Plane.002",
			"rotation":[
				0,
				0,
				-0.7071068286895752,
				0.7071068286895752
			],
			"scale":[
				1.2000000476837158,
				1,
				7.5
			],
			"translation":[
				0,
				-3.570941209793091,
				7.284062385559082
			]
		}
	],
	"materials":[
		{
			"doubleSided":true,
			"extensions":{
				"KHR_materials_specular":{
					"specularFactor":0
				}
			},
			"name":"Wall_painted_white",
			"normalTexture":{
				"extensions":{
					"KHR_texture_transform":{
						"offset":[
							0,
							0.8999999165534973
						],
						"scale":[
							0.10000008344650269,
							0.10000008344650269
						]
					}
				},
				"index":0
			},
			"pbrMetallicRoughness":{
				"baseColorTexture":{
					"extensions":{
						"KHR_texture_transform":{
							"offset":[
								0,
								0.8999999165534973
							],
							"scale":[
								0.10000008344650269,
								0.10000008344650269
							]
						}
					},
					"index":1
				},
				"metallicFactor":0,
				"metallicRoughnessTexture":{
					"extensions":{
						"KHR_texture_transform":{
							"offset":[
								0,
								0.8999999165534973
							],
							"scale":[
								0.10000008344650269,
								0.10000008344650269
							]
						}
					},
					"index":2
				}
			}
		},
		{
			"doubleSided":true,
			"extensions":{
				"KHR_materials_specular":{
					"specularFactor":0
				}
			},
			"name":"Wall_painted_green",
			"normalTexture":{
				"extensions":{
					"KHR_texture_transform":{
						"offset":[
							0,
							0.8999999761581421
						],
						"scale":[
							0.10000002384185791,
							0.10000002384185791
						]
					}
				},
				"index":3
			},
			"pbrMetallicRoughness":{
				"baseColorTexture":{
					"extensions":{
						"KHR_texture_transform":{
							"offset":[
								0,
								0.8999999761581421
							],
							"scale":[
								0.10000002384185791,
								0.10000002384185791
							]
						}
					},
					"index":4
				},
				"metallicFactor":0,
				"metallicRoughnessTexture":{
					"extensions":{
						"KHR_texture_transform":{
							"offset":[
								0,
								0.8999999761581421
							],
							"scale":[
								0.10000002384185791,
								0.10000002384185791
							]
						}
					},
					"index":5
				}
			}
		},
		{
			"doubleSided":true,
			"extensions":{
				"KHR_materials_specular":{
					"specularFactor":0
				}
			},
			"name":"Wall_painted_blue",
			"normalTexture":{
				"extensions":{
					"KHR_texture_transform":{
						"offset":[
							0,
							0.8999999761581421
						],
						"scale":[
							0.10000002384185791,
							0.10000002384185791
						]
					}
				},
				"index":6
			},
			"pbrMetallicRoughness":{
				"baseColorTexture":{
					"extensions":{
						"KHR_texture_transform":{
							"offset":[
								0,
								0.8999999761581421
							],
							"scale":[
								0.10000002384185791,
								0.10000002384185791
							]
						}
					},
					"index":7
				},
				"metallicFactor":0,
				"metallicRoughnessTexture":{
					"extensions":{
						"KHR_texture_transform":{
							"offset":[
								0,
								0.8999999761581421
							],
							"scale":[
								0.10000002384185791,
								0.10000002384185791
							]
						}
					},
					"index":8
				}
			}
		},
		{
			"doubleSided":true,
			"extensions":{
				"KHR_materials_specular":{
					"specularFactor":0
				}
			},
			"name":"Wall_painted_red",
			"normalTexture":{
				"extensions":{
					"KHR_texture_transform":{
						"offset":[
							0,
							0.8999999761581421
						],
						"scale":[
							0.10000002384185791,
							0.10000002384185791
						]
					}
				},
				"index":9,
				"texCoord":1
			},
			"pbrMetallicRoughness":{
				"baseColorTexture":{
					"extensions":{
						"KHR_texture_transform":{
							"offset":[
								0,
								0.8999999761581421
							],
							"scale":[
								0.10000002384185791,
								0.10000002384185791
							]
						}
					},
					"index":10,
					"texCoord":1
				},
				"metallicFactor":0,
				"metallicRoughnessTexture":{
					"extensions":{
						"KHR_texture_transform":{
							"offset":[
								0,
								0.8999999761581421
							],
							"scale":[
								0.10000002384185791,
								0.10000002384185791
							]
						}
					},
					"index":11,
					"texCoord":1
				}
			}
		}
	],
	"meshes":[
		{
			"name":"Plane.001",
			"primitives":[
				{
					"attributes":{
						"POSITION":0,
						"NORMAL":1,
						"TEXCOORD_0":2
					},
					"indices":3,
					"material":0
				},
				{
					"attributes":{
						"POSITION":4,
						"NORMAL":5,
						"TEXCOORD_0":6
					},
					"indices":7,
					"material":1
				},
				{
					"attributes":{
						"POSITION":8,
						"NORMAL":9,
						"TEXCOORD_0":10
					},
					"indices":11,
					"material":2
				}
			]
		},
		{
			"name":"Plane.005",
			"primitives":[
				{
					"attributes":{
						"POSITION":12,
						"NORMAL":13,
						"TEXCOORD_0":14
					},
					"indices":15,
					"material":0
				}
			]
		},
		{
			"name":"Plane.002",
			"primitives":[
				{
					"attributes":{
						"POSITION":16,
						"NORMAL":17,
						"TEXCOORD_0":18,
						"TEXCOORD_1":19
					},
					"indices":20,
					"material":3
				}
			]
		}
	],
	"textures":[
		{
			"sampler":0,
			"source":0
		},
		{
			"sampler":0,
			"source":1
		},
		{
			"sampler":0,
			"source":2
		},
		{
			"sampler":0,
			"source":3
		},
		{
			"sampler":0,
			"source":4
		},
		{
			"sampler":0,
			"source":5
		},
		{
			"sampler":0,
			"source":3
		},
		{
			"sampler":0,
			"source":4
		},
		{
			"sampler":0,
			"source":5
		},
		{
			"sampler":0,
			"source":3
		},
		{
			"sampler":0,
			"source":4
		},
		{
			"sampler":0,
			"source":5
		}
	],
	"images":[
		{
			"mimeType":"image/jpeg",
			"name":"painted_plaster_wall_20_normal",
			"uri":"painted_plaster_wall_20_normal.jpg"
		},
		{
			"mimeType":"image/jpeg",
			"name":"painted_plaster_wall_20_color",
			"uri":"painted_plaster_wall_20_color.jpg"
		},
		{
			"mimeType":"image/png",
			"name":"painted_plaster_wall_20_roughness",
			"uri":"painted_plaster_wall_20_roughness.png"
		},
		{
			"mimeType":"image/jpeg",
			"name":"painted_plaster_wall_18_normal",
			"uri":"painted_plaster_wall_18_normal.jpg"
		},
		{
			"mimeType":"image/jpeg",
			"name":"painted_plaster_wall_18_color",
			"uri":"painted_plaster_wall_18_color.jpg"
		},
		{
			"mimeType":"image/png",
			"name":"painted_plaster_wall_18_roughness",
			"uri":"painted_plaster_wall_18_roughness.png"
		}
	],
	"accessors":[
		{
			"bufferView":0,
			"componentType":5126,
			"count":32,
			"max":[
				1.2000001668930054,
				1.618638520994864e-07,
				2.117384195327759
			],
			"min":[
				-1.2000006437301636,
				-5.991010665893555,
				-27.93716049194336
			],
			"type":"VEC3"
		},
		{
			"bufferView":1,
			"componentType":5126,
			"count":32,
			"type":"VEC3"
		},
		{
			"bufferView":2,
			"componentType":5126,
			"count":32,
			"type":"VEC2"
		},
		{
			"bufferView":3,
			"componentType":5123,
			"count":84,
			"type":"SCALAR"
		},
		{
			"bufferView":4,
			"componentType":5126,
			"count":18,
			"max":[
				1.2000001668930054,
				1.1306452307735526e-07,
				-13.89692497253418
			],
			"min":[
				-1.2000006437301636,
				-5.991010665893555,
				-25.937227249145508
			],
			"type":"VEC3"
		},
		{
			"bufferView":5,
			"componentType":5126,
			"count":18,
			"type":"VEC3"
		},
		{
			"bufferView":6,
			"componentType":5126,
			"count":18,
			"type":"VEC2"
		},
		{
			"bufferView":7,
			"componentType":5123,
			"count":48,
			"type":"SCALAR"
		},
		{
			"bufferView":8,
			"componentType":5126,
			"count":10,
			"max":[
				1.2000000476837158,
				1.618638520994864e-07,
				-27.93716049194336
			],
			"min":[
				-1.2000006437301636,
				-5.991010665893555,
				-38.58953094482422
			],
			"type":"VEC3"
		},
		{
			"bufferView":9,
			"componentType":5126,
			"count":10,
			"type":"VEC3"
		},
		{
			"bufferView":10,
			"componentType":5126,
			"count":10,
			"type":"VEC2"
		},
		{
			"bufferView":11,
			"componentType":5123,
			"count":24,
			"type":"SCALAR"
		},
		{
			"bufferView":12,
			"componentType":5126,
			"count":52,
			"max":[
				1.2000013589859009,
				7.702686309814453,
				2.0580737590789795
			],
			"min":[
				-1.2000006437301636,
				-0.2974998354911804,
				-38.28996276855469
			],
			"type":"VEC3"
		},
		{
			"bufferView":13,
			"componentType":5126,
			"count":52,
			"type":"VEC3"
		},
		{
			"bufferView":14,
			"componentType":5126,
			"count":52,
			"type":"VEC2"
		},
		{
			"bufferView":15,
			"componentType":5123,
			"count":78,
			"type":"SCALAR"
		},
		{
			"bufferView":16,
			"componentType":5126,
			"count":6,
			"max":[
				0,
				4.287405014038086,
				5.960464477539063e-08
			],
			"min":[
				-2.000000476837158,
				-4.287405014038086,
				0
			],
			"type":"VEC3"
		},
		{
			"bufferView":17,
			"componentType":5126,
			"count":6,
			"type":"VEC3"
		},
		{
			"bufferView":18,
			"componentType":5126,
			"count":6,
			"type":"VEC2"
		},
		{
			"bufferView":19,
			"componentType":5126,
			"count":6,
			"type":"VEC2"
		},
		{
			"bufferView":20,
			"componentType":5123,
			"count":12,
			"type":"SCALAR"
		}
	],
	"bufferViews":[
		{
			"buffer":0,
			"byteLength":384,
			"byteOffset":0,
			"target":34962
		},
		{
			"buffer":0,
			"byteLength":384,
			"byteOffset":384,
			"target":34962
		},
		{
			"buffer":0,
			"byteLength":256,
			"byteOffset":768,
			"target":34962
		},
		{
			"buffer":0,
			"byteLength":168,
			"byteOffset":1024,
			"target":34963
		},
		{
			"buffer":0,
			"byteLength":216,
			"byteOffset":1192,
			"target":34962
		},
		{
			"buffer":0,
			"byteLength":216,
			"byteOffset":1408,
			"target":34962
		},
		{
			"buffer":0,
			"byteLength":144,
			"byteOffset":1624,
			"target":34962
		},
		{
			"buffer":0,
			"byteLength":96,
			"byteOffset":1768,
			"target":34963
		},
		{
			"buffer":0,
			"byteLength":120,
			"byteOffset":1864,
			"target":34962
		},
		{
			"buffer":0,
			"byteLength":120,
			"byteOffset":1984,
			"target":34962
		},
		{
			"buffer":0,
			"byteLength":80,
			"byteOffset":2104,
			"target":34962
		},
		{
			"buffer":0,
			"byteLength":48,
			"byteOffset":2184,
			"target":34963
		},
		{
			"buffer":0,
			"byteLength":624,
			"byteOffset":2232,
			"target":34962
		},
		{
			"buffer":0,
			"byteLength":624,
			"byteOffset":2856,
			"target":34962
		},
		{
			"buffer":0,
			"byteLength":416,
			"byteOffset":3480,
			"target":34962
		},
		{
			"buffer":0,
			"byteLength":156,
			"byteOffset":3896,
			"target":34963
		},
		{
			"buffer":0,
			"byteLength":72,
			"byteOffset":4052,
			"target":34962
		},
		{
			"buffer":0,
			"byteLength":72,
			"byteOffset":4124,
			"target":34962
		},
		{
			"buffer":0,
			"byteLength":48,
			"byteOffset":4196,
			"target":34962
		},
		{
			"buffer":0,
			"byteLength":48,
			"byteOffset":4244,
			"target":34962
		},
		{
			"buffer":0,
			"byteLength":24,
			"byteOffset":4292,
			"target":34963
		}
	],
	"samplers":[
		{
			"magFilter":9729,
			"minFilter":9987
		}
	],
	"buffers":[
		{
			"byteLength":4316,
			"uri":"wall.bin"
		}
	]
}
