{
	"asset":{
		"generator":"Khronos glTF Blender I/O v5.1.20",
		"version":"2.0"
	},
	"scene":0,
	"scenes":[
		{
			"name":"Scene",
			"nodes":[
				0
			]
		}
	],
	"nodes":[
		{
			"mesh":0,
			"name":"Went.003",
			"rotation":[
				0,
				0.7071068286895752,
				0,
				0.7071068286895752
			],
			"translation":[
				-7.148904323577881,
				-1.3208625316619873,
				-7.670892715454102
			]
		}
	],
	"materials":[
		{
			"doubleSided":true,
			"name":"Procedural Aluminum Foil.001",
			"pbrMetallicRoughness":{
				"baseColorFactor":[
					0.5383536219596863,
					0.5793977379798889,
					0.5914490222930908,
					1
				]
			}
		}
	],
	"meshes":[
		{
			"name":"Cube.070",
			"primitives":[
				{
					"attributes":{
						"POSITION":0,
						"NORMAL":1,
						"TEXCOORD_0":2,
						"TEXCOORD_1":3
					},
					"indices":4,
					"material":0
				}
			]
		}
	],
	"accessors":[
		{
			"bufferView":0,
			"componentType":5126,
			"count":78448,
			"max":[
				27.627777099609375,
				0.15028095245361328,
				18.279064178466797
			],
			"min":[
				-14.300947189331055,
				-0.3820619583129883,
				-2.2523341178894043
			],
			"type":"VEC3"
		},
		{
			"bufferView":1,
			"componentType":5126,
			"count":78448,
			"type":"VEC3"
		},
		{
			"bufferView":2,
			"componentType":5126,
			"count":78448,
			"type":"VEC2"
		},
		{
			"bufferView":3,
			"componentType":5126,
			"count":78448,
			"type":"VEC2"
		},
		{
			"bufferView":4,
			"componentType":5125,
			"count":246402,
			"type":"SCALAR"
		}
	],
	"bufferViews":[
		{
			"buffer":0,
			"byteLength":941376,
			"byteOffset":0,
			"target":34962
		},
		{
			"buffer":0,
			"byteLength":941376,
			"byteOffset":941376,
			"target":34962
		},
		{
			"buffer":0,
			"byteLength":627584,
			"byteOffset":1882752,
			"target":34962
		},
		{
			"buffer":0,
			"byteLength":627584,
			"byteOffset":2510336,
			"target":34962
		},
		{
			"buffer":0,
			"byteLength":985608,
			"byteOffset":3137920,
			"target":34963
		}
	],
	"buffers":[
		{
			"byteLength":4123528,
			"uri":"Went.bin"
		}
	]
}
