{
	"asset":{
		"generator":"Khronos glTF Blender I/O v5.1.20",
		"version":"2.0"
	},
	"scene":0,
	"scenes":[
		{
			"name":"Scene",
			"nodes":[
				0
			]
		}
	],
	"nodes":[
		{
			"mesh":0,
			"name":"Floor.001",
			"translation":[
				0.8817205429077148,
				-3.570941209793091,
				-0.2258862853050232
			]
		}
	],
	"materials":[
		{
			"doubleSided":true,
			"name":"Material.006",
			"normalTexture":{
				"index":0
			},
			"pbrMetallicRoughness":{
				"baseColorTexture":{
					"index":1
				},
				"metallicRoughnessTexture":{
					"index":2
				}
			}
		},
		{
			"alphaMode":"BLEND",
			"doubleSided":true,
			"name":"Tile",
			"normalTexture":{
				"index":3
			},
			"pbrMetallicRoughness":{
				"baseColorTexture":{
					"index":4
				},
				"metallicRoughnessTexture":{
					"index":5
				}
			}
		},
		{
			"alphaMode":"BLEND",
			"doubleSided":true,
			"name":"Material",
			"normalTexture":{
				"index":6
			},
			"pbrMetallicRoughness":{
				"baseColorTexture":{
					"index":7
				},
				"metallicRoughnessTexture":{
					"index":8
				}
			}
		}
	],
	"meshes":[
		{
			"name":"Plane.003",
			"primitives":[
				{
					"attributes":{
						"POSITION":0,
						"NORMAL":1,
						"TEXCOORD_0":2
					},
					"indices":3,
					"material":0
				},
				{
					"attributes":{
						"POSITION":4,
						"NORMAL":5,
						"TEXCOORD_0":6
					},
					"indices":7,
					"material":1
				},
				{
					"attributes":{
						"POSITION":8,
						"NORMAL":9,
						"TEXCOORD_0":10
					},
					"indices":11,
					"material":2
				}
			]
		}
	],
	"textures":[
		{
			"sampler":0,
			"source":0
		},
		{
			"sampler":0,
			"source":1
		},
		{
			"sampler":0,
			"source":2
		},
		{
			"sampler":0,
			"source":3
		},
		{
			"sampler":0,
			"source":4
		},
		{
			"sampler":0,
			"source":5
		},
		{
			"sampler":0,
			"source":6
		},
		{
			"sampler":0,
			"source":7
		},
		{
			"sampler":0,
			"source":8
		}
	],
	"images":[
		{
			"mimeType":"image/png",
			"name":"Concreate_normal",
			"uri":"Concreate_normal.png"
		},
		{
			"mimeType":"image/png",
			"name":"Concreate_basecolor",
			"uri":"Concreate_basecolor.png"
		},
		{
			"mimeType":"image/png",
			"name":"Concreate_metallic-Concreate_roughness",
			"uri":"Concreate_metallic-Concreate_roughness.png"
		},
		{
			"mimeType":"image/png",
			"name":"Concreate_normalfull",
			"uri":"Concreate_normalfull.png"
		},
		{
			"mimeType":"image/png",
			"name":"Concreate_basecolorfull",
			"uri":"Concreate_basecolorfull.png"
		},
		{
			"mimeType":"image/png",
			"name":"Concreate_metallicfull-Concreate_roughnessfull",
			"uri":"Concreate_metallicfull-Concreate_roughnessfull.png"
		},
		{
			"mimeType":"image/png",
			"name":"Concreate_normalangel",
			"uri":"Concreate_normalangel.png"
		},
		{
			"mimeType":"image/png",
			"name":"Concreate_basecolorangel",
			"uri":"Concreate_basecolorangel.png"
		},
		{
			"mimeType":"image/png",
			"name":"Concreate_metallicangel-Concreate_roughnessangel",
			"uri":"Concreate_metallicangel-Concreate_roughnessangel.png"
		}
	],
	"accessors":[
		{
			"bufferView":0,
			"componentType":5126,
			"count":48,
			"max":[
				2.9830641746520996,
				1.9101491943729343e-08,
				8.30671215057373
			],
			"min":[
				-3.0850093364715576,
				0,
				-34.796749114990234
			],
			"type":"VEC3"
		},
		{
			"bufferView":1,
			"componentType":5126,
			"count":48,
			"type":"VEC3"
		},
		{
			"bufferView":2,
			"componentType":5126,
			"count":48,
			"type":"VEC2"
		},
		{
			"bufferView":3,
			"componentType":5123,
			"count":90,
			"type":"SCALAR"
		},
		{
			"bufferView":4,
			"componentType":5126,
			"count":36,
			"max":[
				13.021626472473145,
				1.9101491943729343e-08,
				8.306713104248047
			],
			"min":[
				-13.021626472473145,
				0,
				-34.796749114990234
			],
			"type":"VEC3"
		},
		{
			"bufferView":5,
			"componentType":5126,
			"count":36,
			"type":"VEC3"
		},
		{
			"bufferView":6,
			"componentType":5126,
			"count":36,
			"type":"VEC2"
		},
		{
			"bufferView":7,
			"componentType":5123,
			"count":84,
			"type":"SCALAR"
		},
		{
			"bufferView":8,
			"componentType":5126,
			"count":4,
			"max":[
				2.573995351791382,
				0,
				-2.4691529273986816
			],
			"min":[
				-2.515367269515991,
				0,
				-13.24501895904541
			],
			"type":"VEC3"
		},
		{
			"bufferView":9,
			"componentType":5126,
			"count":4,
			"type":"VEC3"
		},
		{
			"bufferView":10,
			"componentType":5126,
			"count":4,
			"type":"VEC2"
		},
		{
			"bufferView":11,
			"componentType":5123,
			"count":6,
			"type":"SCALAR"
		}
	],
	"bufferViews":[
		{
			"buffer":0,
			"byteLength":576,
			"byteOffset":0,
			"target":34962
		},
		{
			"buffer":0,
			"byteLength":576,
			"byteOffset":576,
			"target":34962
		},
		{
			"buffer":0,
			"byteLength":384,
			"byteOffset":1152,
			"target":34962
		},
		{
			"buffer":0,
			"byteLength":180,
			"byteOffset":1536,
			"target":34963
		},
		{
			"buffer":0,
			"byteLength":432,
			"byteOffset":1716,
			"target":34962
		},
		{
			"buffer":0,
			"byteLength":432,
			"byteOffset":2148,
			"target":34962
		},
		{
			"buffer":0,
			"byteLength":288,
			"byteOffset":2580,
			"target":34962
		},
		{
			"buffer":0,
			"byteLength":168,
			"byteOffset":2868,
			"target":34963
		},
		{
			"buffer":0,
			"byteLength":48,
			"byteOffset":3036,
			"target":34962
		},
		{
			"buffer":0,
			"byteLength":48,
			"byteOffset":3084,
			"target":34962
		},
		{
			"buffer":0,
			"byteLength":32,
			"byteOffset":3132,
			"target":34962
		},
		{
			"buffer":0,
			"byteLength":12,
			"byteOffset":3164,
			"target":34963
		}
	],
	"samplers":[
		{
			"magFilter":9729,
			"minFilter":9987
		}
	],
	"buffers":[
		{
			"byteLength":3176,
			"uri":"Floor.bin"
		}
	]
}
